# xmcd CD database file
#
# Track frame offsets:
#	150
#	26770
#	54212
#	81812
#	106282
#	125837
#	153412
#	170772
#	188722
#	207017
#	222065
#
# Disc length: 3349 seconds
#
# Revision: 0
# Processed by: cddbd v1.5.1PL0 Copyright (c) Steve Scherf et al.
# Submitted via: CDex 1.51
#
DISCID=910d130b
DTITLE=Keith g. Greswold - Blues on the wing
DYEAR=2003
DGENRE=Blues
TTITLE0=Blues on the wing
TTITLE1=Blue Ballad
TTITLE2=Country blue
TTITLE3=Bittersweet
TTITLE4=southbound and blue
TTITLE5=Mellow moods
TTITLE6=And is cool blues
TTITLE7=Blue moon
TTITLE8=Loon Lullaby
TTITLE9=On the cool side
TTITLE10=Blue ice
EXTD=YEAR: 2003
EXTT0=
EXTT1=
EXTT2=
EXTT3=
EXTT4=
EXTT5=
EXTT6=
EXTT7=
EXTT8=
EXTT9=
EXTT10=
PLAYORDER=
